<?xml version="1.0" encoding="UTF-8" standalone="no"?>
<!-- Created with Inkscape (http://www.inkscape.org/) -->

<svg
   xmlns:dc="http://purl.org/dc/elements/1.1/"
   xmlns:cc="http://creativecommons.org/ns#"
   xmlns:rdf="http://www.w3.org/1999/02/22-rdf-syntax-ns#"
   xmlns:svg="http://www.w3.org/2000/svg"
   xmlns="http://www.w3.org/2000/svg"
   xmlns:sodipodi="http://sodipodi.sourceforge.net/DTD/sodipodi-0.dtd"
   xmlns:inkscape="http://www.inkscape.org/namespaces/inkscape"
   width="80mm"
   height="80mm"
   viewBox="0 0 80 80"
   version="1.1"
   id="svg8"
   inkscape:version="0.92.3 (2405546, 2018-03-11)"
   sodipodi:docname="Niedrigwasser-farbig.svg"
   inkscape:export-filename="/home/felix/ownCloud/WWA-Zeichnungen/Niedrigwasser-farbig.png"
   inkscape:export-xdpi="512"
   inkscape:export-ydpi="512">
  <defs
     id="defs2">
    <marker
       inkscape:stockid="TriangleOutS"
       orient="auto"
       refY="0"
       refX="0"
       id="marker2347"
       style="overflow:visible"
       inkscape:isstock="true">
      <path
         id="path2345"
         d="M 5.77,0 -2.88,5 V -5 Z"
         style="fill:#0088aa;fill-opacity:1;fill-rule:evenodd;stroke:#0088aa;stroke-width:1.00000003pt;stroke-opacity:1"
         transform="scale(0.2)"
         inkscape:connector-curvature="0" />
    </marker>
    <marker
       inkscape:stockid="TriangleOutS"
       orient="auto"
       refY="0"
       refX="0"
       id="TriangleOutS"
       style="overflow:visible"
       inkscape:isstock="true">
      <path
         id="path1287"
         d="M 5.77,0 -2.88,5 V -5 Z"
         style="fill:#006680;fill-opacity:1;fill-rule:evenodd;stroke:#006680;stroke-width:1.00000003pt;stroke-opacity:1"
         transform="scale(0.2)"
         inkscape:connector-curvature="0" />
    </marker>
    <marker
       inkscape:stockid="Arrow1Send"
       orient="auto"
       refY="0"
       refX="0"
       id="Arrow1Send"
       style="overflow:visible"
       inkscape:isstock="true">
      <path
         id="path1154"
         d="M 0,0 5,-5 -12.5,0 5,5 Z"
         style="fill:#000000;fill-opacity:1;fill-rule:evenodd;stroke:#000000;stroke-width:1.00000003pt;stroke-opacity:1"
         transform="matrix(-0.2,0,0,-0.2,-1.2,0)"
         inkscape:connector-curvature="0" />
    </marker>
    <marker
       inkscape:stockid="Arrow2Mend"
       orient="auto"
       refY="0"
       refX="0"
       id="Arrow2Mend"
       style="overflow:visible"
       inkscape:isstock="true">
      <path
         id="path1166"
         style="fill:#000000;fill-opacity:1;fill-rule:evenodd;stroke:#000000;stroke-width:0.625;stroke-linejoin:round;stroke-opacity:1"
         d="M 8.7185878,4.0337352 -2.2072895,0.01601326 8.7185884,-4.0017078 c -1.7454984,2.3720609 -1.7354408,5.6174519 -6e-7,8.035443 z"
         transform="scale(-0.6)"
         inkscape:connector-curvature="0" />
    </marker>
    <marker
       inkscape:stockid="TriangleOutL"
       orient="auto"
       refY="0"
       refX="0"
       id="TriangleOutL"
       style="overflow:visible"
       inkscape:isstock="true">
      <path
         id="path1281"
         d="M 5.77,0 -2.88,5 V -5 Z"
         style="fill:#000000;fill-opacity:1;fill-rule:evenodd;stroke:#000000;stroke-width:1.00000003pt;stroke-opacity:1"
         transform="scale(0.8)"
         inkscape:connector-curvature="0" />
    </marker>
    <marker
       inkscape:stockid="Arrow2Lend"
       orient="auto"
       refY="0"
       refX="0"
       id="Arrow2Lend"
       style="overflow:visible"
       inkscape:isstock="true">
      <path
         id="path1160"
         style="fill:#000000;fill-opacity:1;fill-rule:evenodd;stroke:#000000;stroke-width:0.625;stroke-linejoin:round;stroke-opacity:1"
         d="M 8.7185878,4.0337352 -2.2072895,0.01601326 8.7185884,-4.0017078 c -1.7454984,2.3720609 -1.7354408,5.6174519 -6e-7,8.035443 z"
         transform="matrix(-1.1,0,0,-1.1,-1.1,0)"
         inkscape:connector-curvature="0" />
    </marker>
    <marker
       inkscape:stockid="Arrow1Lend"
       orient="auto"
       refY="0"
       refX="0"
       id="Arrow1Lend"
       style="overflow:visible"
       inkscape:isstock="true">
      <path
         id="path1142"
         d="M 0,0 5,-5 -12.5,0 5,5 Z"
         style="fill:#000000;fill-opacity:1;fill-rule:evenodd;stroke:#000000;stroke-width:1.00000003pt;stroke-opacity:1"
         transform="matrix(-0.8,0,0,-0.8,-10,0)"
         inkscape:connector-curvature="0" />
    </marker>
    <inkscape:path-effect
       effect="spiro"
       id="path-effect878"
       is_visible="true" />
    <inkscape:path-effect
       effect="spiro"
       id="path-effect866"
       is_visible="true" />
    <marker
       inkscape:stockid="TriangleOutS"
       orient="auto"
       refY="0"
       refX="0"
       id="marker2347-6"
       style="overflow:visible"
       inkscape:isstock="true">
      <path
         inkscape:connector-curvature="0"
         id="path2345-2"
         d="M 5.77,0 -2.88,5 V -5 Z"
         style="fill:#0088aa;fill-opacity:1;fill-rule:evenodd;stroke:#0088aa;stroke-width:1.00000003pt;stroke-opacity:1"
         transform="scale(0.2)" />
    </marker>
  </defs>
  <sodipodi:namedview
     id="base"
     pagecolor="#ffffff"
     bordercolor="#666666"
     borderopacity="1.0"
     inkscape:pageopacity="0.0"
     inkscape:pageshadow="2"
     inkscape:zoom="2.8284271"
     inkscape:cx="198.77483"
     inkscape:cy="115.34386"
     inkscape:document-units="mm"
     inkscape:current-layer="g1057"
     showgrid="false"
     showguides="false"
     gridtolerance="10"
     guidetolerance="30"
     objecttolerance="30"
     inkscape:window-width="1859"
     inkscape:window-height="1025"
     inkscape:window-x="1981"
     inkscape:window-y="27"
     inkscape:window-maximized="1"
     inkscape:snap-global="false"
     inkscape:snap-bbox="false"
     inkscape:snap-nodes="true"
     inkscape:snap-others="false"
     inkscape:snap-grids="true"
     inkscape:snap-page="true"
     fit-margin-top="0"
     fit-margin-left="0"
     fit-margin-right="0"
     fit-margin-bottom="0">
    <inkscape:grid
       type="xygrid"
       id="grid817"
       units="mm"
       spacingx="4.9999999"
       spacingy="4.9999999"
       originx="0"
       originy="9.5073487e-05" />
  </sodipodi:namedview>
  <metadata
     id="metadata5">
    <rdf:RDF>
      <cc:Work
         rdf:about="">
        <dc:format>image/svg+xml</dc:format>
        <dc:type
           rdf:resource="http://purl.org/dc/dcmitype/StillImage" />
        <dc:title />
      </cc:Work>
    </rdf:RDF>
  </metadata>
  <g
     inkscape:label="Land links"
     inkscape:groupmode="layer"
     id="layer1"
     transform="translate(0,-217.00009)"
     style="display:inline">
    <path
       style="fill:#8dd35f;fill-opacity:1;fill-rule:evenodd;stroke:none;stroke-width:0.26458332px;stroke-linecap:butt;stroke-linejoin:miter;stroke-opacity:1"
       d="m 0,257 35,-20 c 0,0 6.423326,-0.85709 10.612745,1.63235 C 49.458055,240.91731 50,244 50,244 v 6 L 30,265 H 20 Z"
       id="path984"
       inkscape:connector-curvature="0"
       sodipodi:nodetypes="ccsccccc" />
    <path
       style="display:inline;opacity:0.5;fill:#5aa02c;fill-opacity:1;fill-rule:evenodd;stroke:none;stroke-width:0.26458332px;stroke-linecap:butt;stroke-linejoin:miter;stroke-opacity:1"
       d="m 16.11266,260.96612 c 0,0 4.338456,-3.57755 6.676204,-5.13068 3.18782,-2.1179 6.844764,-3.48278 9.977771,-5.68095 2.690037,-1.88738 4.778496,-4.55694 7.501595,-6.39629 2.238965,-1.51234 7.18177,-3.75811 7.18177,-3.75811 0.955849,0.74601 2.153417,2.3298 2.550001,3.99991 v 6 l -20,15 H 20 Z"
       id="path984-3"
       inkscape:connector-curvature="0"
       sodipodi:nodetypes="caaacccccc" />
  </g>
  <g
     style="display:inline"
     transform="translate(0,-217.00009)"
     id="g1057"
     inkscape:groupmode="layer"
     inkscape:label="Land rechts">
    <path
       sodipodi:nodetypes="csssscccccc"
       inkscape:connector-curvature="0"
       id="path1055"
       d="m 59.499072,243.99901 c 0.399127,-0.75486 0.985105,-1.3202 1.515786,-1.915 0.548326,-0.61459 1.313454,-1.24747 2.093189,-1.82335 1.087215,-0.80298 2.297576,-1.25803 2.929854,-1.53206 2.051298,-0.88905 4.6297,-1.50999 7.311181,-1.94434 C 76.08045,236.34183 80,237 80,237 v 13.078 L 60,265 H 40 l 6.010804,-7.70787 z"
       style="opacity:1;fill:#8dd35f;fill-opacity:1;fill-rule:evenodd;stroke:none;stroke-width:0.26458332px;stroke-linecap:butt;stroke-linejoin:miter;stroke-opacity:1" />
    <path
       style="display:inline;opacity:0.5;fill:#5aa02c;fill-opacity:1;fill-rule:evenodd;stroke:none;stroke-width:0.26458332px;stroke-linecap:butt;stroke-linejoin:miter;stroke-opacity:1"
       d="M 47.595819,255.7418 59.5,244.00009 c 0.889995,-1.54482 2.412789,-2.81452 3.619184,-3.76781 0,0 -1.506099,1.43443 -2.711741,3.07348 -0.463688,0.63038 -0.975177,1.71076 -1.166251,2.62426 -0.271597,1.29846 0.203705,2.11619 1.002935,2.41069 0.259954,0.0958 2.689375,0.67161 3.584965,0.64173 2.53257,-0.0845 5.119558,-1.16258 7.175462,-1.79949 1.945046,-0.60257 4.541892,-3.11594 4.541892,-3.11594 l -0.246502,2.82007 -4.736507,4.92959 c 0,0 -2.552268,-0.29946 -3.831952,-0.26071 -1.483046,0.0449 -2.941869,0.38912 -4.414498,0.57025 -2.01618,0.24799 -3.864331,0.57412 -6.052953,0.70715 -1.971846,0.11985 -8.668215,2.90844 -8.668215,2.90844 z"
       id="path984-3-5"
       inkscape:connector-curvature="0"
       sodipodi:nodetypes="cccssssscccaasc" />
  </g>
  <g
     inkscape:groupmode="layer"
     id="layer3"
     inkscape:label="Wasserfläche"
     style="display:inline"
     transform="translate(0,-20.000096)">
    <path
       transform="translate(0,-197)"
       style="display:inline;opacity:1;fill:#aaeeff;fill-opacity:1;fill-rule:nonzero;stroke:none;stroke-width:0.25018027;stroke-linecap:round;stroke-linejoin:round;stroke-miterlimit:4;stroke-dasharray:none;stroke-dashoffset:5.6692915;stroke-opacity:1"
       d="m 50,244 9.5,1e-4 c 0,0 -0.768151,1.09103 -1.06813,1.64676 -0.331859,0.61478 -0.854459,1.3854 -0.878309,2.05462 -0.03486,0.97804 0.299513,1.44078 0.166434,2.14572 -0.158927,0.84185 -0.382586,1.04886 -0.761264,1.43652 -0.436858,0.44723 -1.058969,0.67668 -1.636182,0.91684 -1.164696,0.48461 -2.504256,0.48758 -3.639356,1.03795 -2.099318,1.01789 -3.993582,2.47912 -5.675657,4.09586 C 43.666959,259.58404 40,265.0001 40,265.0001 v 10 L 20,275 v -10 c 0,0 5.461297,-4.11414 8.317096,-5.98928 2.685912,-1.76359 5.697756,-3.02411 8.278186,-4.93872 2.659363,-1.97319 4.656801,-4.75505 7.344363,-6.68965 C 45.817231,246.0308 50,244 50,244 Z"
       id="rect986"
       inkscape:connector-curvature="0"
       sodipodi:nodetypes="ccsssaaaaccccaaac" />
    <g
       id="g2316"
       transform="translate(1.6049195,-198.25177)"
       style="display:inline;fill:#0088aa;stroke:none">
      <path
         style="color:#000000;font-style:normal;font-variant:normal;font-weight:normal;font-stretch:normal;font-size:medium;line-height:normal;font-family:sans-serif;font-variant-ligatures:normal;font-variant-position:normal;font-variant-caps:normal;font-variant-numeric:normal;font-variant-alternates:normal;font-feature-settings:normal;text-indent:0;text-align:start;text-decoration:none;text-decoration-line:none;text-decoration-style:solid;text-decoration-color:#000000;letter-spacing:normal;word-spacing:normal;text-transform:none;writing-mode:lr-tb;direction:ltr;text-orientation:mixed;dominant-baseline:auto;baseline-shift:baseline;text-anchor:start;white-space:normal;shape-padding:0;clip-rule:nonzero;display:inline;overflow:visible;visibility:visible;opacity:1;isolation:auto;mix-blend-mode:normal;color-interpolation:sRGB;color-interpolation-filters:linearRGB;solid-color:#000000;solid-opacity:1;vector-effect:none;fill:#0088aa;fill-opacity:1;fill-rule:evenodd;stroke:none;stroke-width:3.36500001;stroke-linecap:butt;stroke-linejoin:round;stroke-miterlimit:4;stroke-dasharray:none;stroke-dashoffset:0;stroke-opacity:1;color-rendering:auto;image-rendering:auto;shape-rendering:auto;text-rendering:auto;enable-background:accumulate"
         d="m 39.837994,255.41164 -6.197366,5.13918 1.793146,0.98773 6.560329,-5.55187 z"
         id="path1137"
         inkscape:connector-curvature="0"
         sodipodi:nodetypes="ccccc" />
      <path
         style="fill:#0088aa;fill-opacity:1;fill-rule:evenodd;stroke:none;stroke-width:0.61156739pt;stroke-opacity:1"
         d="m 32.065091,263.27574 0.09189,-3.61424 5.843367,1.92239 z"
         id="path2320"
         inkscape:connector-curvature="0"
         sodipodi:nodetypes="cccc" />
    </g>
  </g>
  <g
     inkscape:groupmode="layer"
     id="layer2"
     inkscape:label="Querschnittsflaeche"
     style="display:inline"
     transform="translate(0,-20.000096)"
     sodipodi:insensitive="true">
    <path
       style="display:inline;opacity:1;fill:#a05a2c;fill-opacity:1;fill-rule:nonzero;stroke:none;stroke-width:1.14591265;stroke-linecap:round;stroke-linejoin:round;stroke-miterlimit:4;stroke-dasharray:none;stroke-dashoffset:5.6692915;stroke-opacity:1"
       d="m 302.36133,151.18164 c 0,0 -5.06666,6.46256 -7.53711,9.74219 -2.05739,2.73126 -4.29781,5.34688 -6.06641,8.27344 -2.15164,3.56039 -3.65894,7.47093 -5.47656,11.21289 -3.31208,6.81861 -5.18733,12.59411 -10.03769,18.41969 -2.61454,3.14024 -5.5389,6.23884 -9.30238,7.83042 -5.73574,2.42565 -13.21976,3.32294 -19.00621,5.625 -2.64349,1.05168 -7.6747,5.46126 -9.89177,7.24414 -4.03917,3.24813 -8.27172,7.24207 -8.27172,7.24207 0,0 -3.18876,0.46526 -9.73426,-1.0193 -4.96173,-1.12539 -8.44488,-3.56157 -16.58995,-3.82387 -9.66703,-0.31117 -20.90673,-0.0836 -28.14258,7.46036 -6.62888,6.91109 -14.31629,18.23813 -21.12305,27.61914 -5.90841,8.14292 -12.79918,30.72552 -37.79492,30.84571 C 85.2705,287.98882 80.150808,268.56069 75.589844,257.00781 71.473171,246.58032 65.965066,235.39363 56.576172,229.26758 46.548095,222.72435 33.249239,222.57089 21.275391,222.61133 14.049374,222.63563 0,226.77148 0,226.77148 v 151.18164 h 226.77148 l 75.58985,-113.38671 z"
       transform="scale(0.26458333)"
       id="rect961-6"
       inkscape:connector-curvature="0"
       sodipodi:nodetypes="ccsscsccccccscsccccccc" />
    <path
       style="display:inline;opacity:1;fill:#006daa;fill-opacity:0.19402986;fill-rule:nonzero;stroke:none;stroke-width:1.32351041;stroke-linecap:round;stroke-linejoin:round;stroke-miterlimit:4;stroke-dasharray:none;stroke-dashoffset:5.6692915;stroke-opacity:1"
       d="m 302.36133,173.85742 -75.58985,83.15039 H 0 v 64.25196 h 226.77148 l 75.58985,-99.21289 z"
       id="rect982"
       inkscape:connector-curvature="0"
       transform="scale(0.26458333)" />
    <path
       style="display:inline;opacity:1;fill:#e9c6af;fill-opacity:1;fill-rule:nonzero;stroke:none;stroke-width:1.11028767;stroke-linecap:round;stroke-linejoin:round;stroke-miterlimit:4;stroke-dasharray:none;stroke-dashoffset:5.6692915;stroke-opacity:1"
       d="m 302.36133,207.87305 -8.19922,11.1875 c -3.14961,3.937 -3.38946,8.08252 -6.53906,12.01953 -3.14961,3.93701 -4.84259,3.71534 -7.99219,7.65234 -1.44456,1.80571 -2.12076,6.24896 -4.98633,8.4336 -3.38228,2.57856 -5.87699,4.15776 -7.58203,6.28906 -3.14961,3.93701 -0.68438,3.92236 -3.83398,7.85937 -3.14961,3.93701 -3.59454,4.54542 -6.74414,8.48243 -0.89426,1.11781 -2.77706,5.35933 -4.56446,8.98437 -1.38463,2.8082 -5.24905,0.96353 -6.90234,3.06445 -3.72928,4.73898 -8.0663,6.96081 -9.62891,8.91407 l -8.61719,11.60156 c 0,0 -22.15907,1.00758 -31.875,0 -11.66219,-1.20941 -23.09375,5.05631 -34.81836,5 -12.93152,-0.062 -25.42471,-5.35539 -38.3457,-5.88086 -6.91148,-0.28105 -13.80755,2.06431 -20.69922,1.4707 -4.06317,-0.34998 -7.806244,-2.69385 -11.87695,-2.9414 -9.698491,-0.58942 -6.578864,3.72545 -28.933594,3.52929 C 36.128478,303.32779 42.729845,297.7287 33.640625,297.36133 22.313162,296.9037 0,302.36133 0,302.36133 v 75.59179 h 226.77148 l 75.58985,-113.38671 z"
       transform="scale(0.26458333)"
       id="rect979"
       inkscape:connector-curvature="0"
       sodipodi:nodetypes="cccccscccsccsccscccccccc" />
    <path
       style="display:inline;fill:none;fill-rule:evenodd;stroke:#0088aa;stroke-width:1.26499999;stroke-linecap:butt;stroke-linejoin:miter;stroke-miterlimit:4;stroke-dasharray:none;stroke-opacity:1;marker-end:url(#marker2347)"
       d="m 10.454955,69.790682 13.811549,1.925914"
       id="path2328"
       inkscape:connector-curvature="0"
       sodipodi:nodetypes="cc" />
    <path
       style="display:inline;fill:none;fill-rule:evenodd;stroke:#0088aa;stroke-width:1.26499999;stroke-linecap:butt;stroke-linejoin:miter;stroke-miterlimit:4;stroke-dasharray:none;stroke-opacity:1;marker-end:url(#marker2347-6)"
       d="M 49.750343,70.357624 34.728226,71.898356"
       id="path2328-9"
       inkscape:connector-curvature="0"
       sodipodi:nodetypes="cc" />
    <path
       style="fill:#4d4d4d;fill-opacity:0.35572139;fill-rule:evenodd;stroke:none;stroke-width:0.26458332px;stroke-linecap:butt;stroke-linejoin:miter;stroke-opacity:1"
       d="m 60,60 v 40 L 80,70 V 40 c 0,0 -0.718346,0.922682 -1.58163,2.033315 -0.896762,1.153704 -1.947747,2.512937 -2.393509,3.400015 -0.768509,1.52935 -1.127918,2.598416 -1.973771,4.257336 -0.195222,0.382878 -0.402851,0.806443 -0.61153,1.206781 -0.403445,0.773986 -0.915404,1.402552 -1.307299,1.895127 -0.510362,0.641477 -1.659302,1.718885 -2.434403,1.98974 -0.726841,0.253991 -2.871704,0.714451 -4.539169,1.216214 -0.582388,0.175248 -1.716253,1.063303 -2.382533,1.597435 C 61.674452,58.47916 60,60 60,60 Z"
       id="path4522"
       inkscape:connector-curvature="0"
       sodipodi:nodetypes="ccccssssssssc" />
  </g>
</svg>
